<?xml version="1.0" standalone="no"?>
<!DOCTYPE svg PUBLIC "-//W3C//DTD SVG 20010904//EN"
 "http://www.w3.org/TR/2001/REC-SVG-20010904/DTD/svg10.dtd">
<svg version="1.0" xmlns="http://www.w3.org/2000/svg"
 width="699.000000pt" height="699.000000pt" viewBox="0 0 699.000000 699.000000"
 preserveAspectRatio="xMidYMid meet">
<metadata>
Created by potrace 1.14, written by Peter Selinger 2001-2017
</metadata>
<g transform="translate(0.000000,699.000000) scale(0.100000,-0.100000)"
fill="#000000" stroke="none">
<path d="M2505 6660 c-563 -33 -1083 -230 -1395 -527 -50 -48 -120 -125 -156
-172 -163 -217 -274 -561 -181 -561 26 0 71 34 182 140 146 138 298 222 538
294 402 122 975 175 1892 176 713 1 965 26 1005 99 56 105 -340 314 -834 441
-343 88 -732 129 -1051 110z"/>
<path d="M4526 6548 c-3 -13 -6 -70 -6 -128 -1 -553 -124 -1007 -377 -1390
-170 -257 -390 -482 -998 -1021 -432 -383 -632 -548 -995 -824 -671 -509
-1056 -869 -1347 -1256 -157 -210 -275 -426 -329 -604 -26 -83 -28 -103 -27
-260 0 -350 120 -793 182 -676 6 10 20 77 31 148 89 550 204 761 636 1165 347
325 757 634 1211 916 404 251 1046 794 1402 1186 338 371 573 753 677 1099
128 425 146 1068 42 1499 -32 133 -85 209 -102 146z"/>
<path d="M5385 4549 c-264 -33 -596 -204 -782 -402 -340 -364 -384 -975 -101
-1398 118 -176 195 -226 909 -584 344 -173 590 -302 628 -331 123 -92 210
-255 211 -390 0 -86 -47 -199 -111 -269 -96 -104 -212 -147 -394 -146 -211 0
-355 36 -653 160 -435 181 -729 244 -1137 244 -273 0 -434 -28 -662 -115 -196
-75 -700 -335 -903 -465 -253 -163 -184 -173 358 -54 656 145 1012 166 1349
81 150 -38 283 -93 495 -205 311 -164 446 -219 683 -280 208 -53 328 -69 520
-69 121 0 195 5 259 18 383 75 675 284 826 591 141 287 145 669 9 944 -45 92
-63 116 -148 200 -158 157 -341 275 -614 397 -808 358 -876 393 -990 503 -98
95 -134 156 -167 286 -31 120 -36 216 -15 300 27 109 71 213 123 290 40 58 61
78 124 116 162 98 314 118 492 65 118 -35 217 -84 421 -207 192 -115 259 -148
362 -177 56 -16 81 -18 107 -11 44 12 122 81 146 130 26 50 26 132 1 181 -28
55 -197 243 -277 307 -184 149 -503 259 -839 291 -122 11 -131 11 -230 -1z"/>
<path d="M3305 2300 c-161 -10 -310 -34 -490 -80 -524 -133 -1083 -459 -1501
-875 -188 -186 -274 -311 -274 -395 0 -35 4 -42 27 -51 16 -6 52 -8 83 -5 127
15 282 70 860 309 500 206 678 274 975 372 434 145 709 203 990 212 211 7 306
-8 478 -74 141 -53 213 -66 224 -38 13 34 -56 144 -147 235 -180 182 -424 307
-699 360 -84 17 -378 44 -401 38 -3 0 -59 -4 -125 -8z"/>
</g>
</svg>
